<?xml version="1.0" encoding="utf-8"?>
<!-- Generator: Adobe Illustrator 27.5.0, SVG Export Plug-In . SVG Version: 6.00 Build 0)  -->
<svg version="1.1"
	 id="svg8" xmlns:svg="http://www.w3.org/2000/svg" xmlns:sodipodi="http://sodipodi.sourceforge.net/DTD/sodipodi-0.dtd" xmlns:rdf="http://www.w3.org/1999/02/22-rdf-syntax-ns#" xmlns:dc="http://purl.org/dc/elements/1.1/" xmlns:inkscape="http://www.inkscape.org/namespaces/inkscape" xmlns:cc="http://creativecommons.org/ns#" sodipodi:docname="icon.svg"
	 xmlns="http://www.w3.org/2000/svg" xmlns:xlink="http://www.w3.org/1999/xlink" x="0px" y="0px" viewBox="0 0 1024 1024"
	 style="enable-background:new 0 0 1024 1024;" xml:space="preserve">
<g>
	<path id="path865" inkscape:connector-curvature="0" sodipodi:nodetypes="ccsscc" d="M702.6,326.2L618.8,457l71.8-9.3
		c14-1.8,39.2-12,54.2-35.4l55.2-86h-97.4V326.2z"/>
	<path id="rect862" inkscape:connector-curvature="0" sodipodi:nodetypes="ccccc" d="M574.6,326.2l-95.8,149.4l107-13.9l86.9-135.5
		H574.6z"/>
	<path id="path867" inkscape:connector-curvature="0" d="M115.2,326.2l-4.8,5.8l298.1,53.9l-68.9,107.7l106.2-13.8l98.5-153.6h-96.4
		H115.2z"/>
	<path id="rect838" inkscape:connector-curvature="0" sodipodi:nodetypes="ccccc" d="M215.8,377.4L81.9,586.2l183.4-24.1l100.7-157
		L215.8,377.4z"/>
	<path id="rect841" inkscape:connector-curvature="0" d="M437.3,181.8c-68.3,0-118.4,35.6-146.5,79.6L266,300.1h506.9
		c68.2,0,116.2-35.6,144.4-79.6l24.8-38.7H437.3z"/>
</g>
<g>
	<g>
		<g>
			<path d="M106.8,879.4l-27.1-94h-1.4l-13.1,94H23.5l31.2-222.8h44.1c23.5,0,41.8,6.8,53,19.6c10.3,11.8,14.4,28.3,11.7,47.8
				c-3.4,25.1-18.9,44.6-43.1,54.6L151,879.4H106.8z M84.1,745.1c29.2-0.3,34.6-15.3,36.1-26.6c0.9-6.7-0.2-11.9-3.4-15.5
				c-3.6-4.2-10.3-6.4-19.2-6.4h-6.9L84.1,745.1z"/>
		</g>
		<g>
			<path d="M334.4,879.4l-6.7-66.3h-30.3l-23,66.3h-44.6l83-222.8h39.9l24.8,222.8H334.4z M323.6,772.8l-2.2-20.9
				c-0.2-1.7-0.6-6.2-0.6-6.7c-0.7,2.1-1.4,4.1-2,5.9l-7.6,21.7H323.6z"/>
		</g>
		<g>
			<path d="M471.7,879.4l31.4-222.8h43.6c21.5,0,38.2,6.5,49.5,19.4c16.2,18.5,21.2,49.7,15.2,95.3c-8.9,71.7-39.4,108.1-90.6,108.1
				H471.7z M523.9,839.9c8.5,0,34.3,0,44-69.9c4.9-34.1,2.9-56.6-5.9-66.8c-4.1-4.7-10-7-18.1-7h-3.8l-20.3,143.7H523.9z"/>
		</g>
		<g>
			<polygon points="701.9,879.4 733,656.6 774.8,656.6 743.6,879.4 			"/>
		</g>
		<g>
			<path d="M917.4,882c-17.4,0-31-5.4-40.3-16c-15.2-17.4-19.2-48.7-12.4-98.5c5.2-38,13.9-65.5,26.6-84.1
				c13.3-19.4,31.2-29.3,53.2-29.3c17.6,0,31.3,5.4,40.6,15.9c15.3,17.4,19,48.1,12.2,99.6C987.3,845.2,961.2,882,917.4,882z
				 M942.5,694.3c-16.7,0-26.1,20.4-34.3,75.4c-5.6,36.9-4.9,59.9,2.3,68.2c1.5,1.7,3.9,3.8,9.5,3.8c16.6,0,25.4-19.5,33.8-74.4
				c5.7-37.8,5-61.1-2.1-69.4C950.2,696.3,947.9,694.3,942.5,694.3z"/>
		</g>
	</g>
</g>
</svg>
